<?xml version="1.0" encoding="UTF-8"?>
    <svg data-name="Layer 1" viewBox="0 0 523 336" xmlns="http://www.w3.org/2000/svg">
    <circle transform="translate(-511.28 424.43) rotate(-45)" cx="766.35" cy="561.78" r="43.067" fill="#2f2e41"/>
    <circle transform="translate(-439.63 -104.09) rotate(-12.481)" cx="762.93" cy="551.37" r="14.719" fill="#fff"/>
    <circle transform="translate(-438.95 -105.46) rotate(-12.481)" cx="756.97" cy="547.56" r="4.9064" fill="#3f3d56"/>
    <path transform="translate(-338.5 -282)" d="m764.65 532.66c-17.613-0.03251-29.978-3.1785-29.948-19.136s14.332-28.867 31.945-28.834 31.868 12.995 31.838 28.952c-0.02955 15.957-16.222 19.05-33.835 19.018z" fill="#9a70f3"/>
    <path transform="translate(-338.5 -282)" d="m833.85 568.97c-5.0521 17.526-19.804 29.795-35.191 40.217q-3.2228 2.1833-6.4477 4.266c-0.01457 0.00636-0.02957 0.02-0.04432 0.02649-0.10343 0.06645-0.20707 0.133-0.30344 0.19991-0.44372 0.286-0.88759 0.57222-1.3276 0.855l0.24171 0.10858s0.23735 0.12621-0.02233 0.02024c-0.07728-0.03233-0.15825-0.06136-0.23537-0.09387-8.9393-3.6054-18.037-7.4764-24.888-14.23-7.1065-7.0136-11.26-18.014-7.4114-27.228a17.592 17.592 0 0 1 1.9048-3.4189c0.31214-0.44666 0.64831-0.87416 0.99832-1.2937a18.856 18.856 0 0 1 32.386 5.7298c1.1305-10.526-7.5488-19.343-15.901-25.848-8.3562-6.5023-17.851-13.583-19.467-24.051-0.90215-5.8239 1.1231-11.468 4.8122-15.999 0.11421-0.13766 0.22827-0.27514 0.3459-0.409a27.518 27.518 0 0 1 17.687-9.4888c12.813-1.3317 25.259 5.4506 34.568 14.359 14.982 14.334 24.039 36.35 18.296 56.278z" fill="#e6e6e6"/>
    <path transform="translate(-338.5 -282)" d="m809.77 546.05a46.78 46.78 0 0 1 5.6044 12.361 40.62 40.62 0 0 1 1.404 11.997 52.044 52.044 0 0 1-6.8162 23.685 74.902 74.902 0 0 1-11.299 15.099q-3.2228 2.1833-6.4477 4.266c-0.01457 0.00636-0.02957 0.02-0.04432 0.02649-0.10343 0.06645-0.20707 0.133-0.30344 0.19991-0.44372 0.286-0.88759 0.57222-1.3276 0.855 0 0 0.47906 0.23479 0.21938 0.12882-0.07728-0.03233-0.15825-0.06136-0.23537-0.09387a41.405 41.405 0 0 0-13.249-35.651 41.76 41.76 0 0 0-17.146-9.2264c0.31214-0.44666 0.64831-0.87416 0.99832-1.2937a43.296 43.296 0 0 1 7.1466 2.7044 42.424 42.424 0 0 1 19.182 18.493 43.374 43.374 0 0 1 4.7225 23.801c0.36729-0.33284 0.735-0.67291 1.0917-1.0098 6.7929-6.3331 12.826-13.602 16.91-21.992a48.416 48.416 0 0 0 5.0699-22.907c-0.33324-8.6533-3.781-16.668-8.7729-23.646a101.35 101.35 0 0 0-19.211-19.798 115.16 115.16 0 0 0-23.892-14.751 0.828 0.828 0 0 1-0.41667-1.0626 0.7042 0.7042 0 0 1 0.3459-0.409 0.61308 0.61308 0 0 1 0.53243 0.02261c1.0539 0.48518 2.1005 0.977 3.1387 1.4901a116.46 116.46 0 0 1 24.062 15.873c7.0828 6.0385 13.751 12.938 18.733 20.838z" fill="#fff"/>
    <ellipse cx="73.714" cy="331.46" rx="10.903" ry="4.0887" fill="#2f2e41"/>
    <ellipse cx="99.881" cy="330.92" rx="10.903" ry="4.0887" fill="#2f2e41"/>
    <ellipse transform="translate(-546.62 25.1) rotate(-29.963)" cx="469.74" cy="542.42" rx="21.534" ry="6.7601" fill="#2f2e41"/>
    <circle transform="translate(-533.76 600.39) rotate(-80.783)" cx="420.94" cy="555.95" r="43.067" fill="#2f2e41"/>
    <rect x="62.811" y="307.75" width="13.084" height="23.442" fill="#2f2e41"/>
    <rect x="88.978" y="307.75" width="13.084" height="23.442" fill="#2f2e41"/>
    <circle cx="83.527" cy="263.04" r="14.719" fill="#fff"/>
    <circle cx="83.527" cy="263.04" r="4.9064" fill="#3f3d56"/>
    <path transform="translate(-338.5 -282)" d="m379.16 515.89c-3.4775-15.574 7.6387-31.31 24.829-35.149s33.944 5.6751 37.422 21.249-7.9149 21.318-25.105 25.156-33.668 4.3178-37.145-11.256z" fill="#e6e6e6"/>
    <ellipse transform="translate(-609.93 360.79) rotate(-64.626)" cx="372.43" cy="535.96" rx="6.7601" ry="21.534" fill="#2f2e41"/>
    <path transform="translate(-338.5 -282)" d="m399.78 571.48c0 4.2151 10.853 12.539 22.897 12.539s23.335-11.867 23.335-16.082-11.292 0.81775-23.335 0.81775-22.897-1.4894-22.897 2.7258z" fill="#fff"/>
    <ellipse cx="232.61" cy="331.46" rx="10.903" ry="4.0887" fill="#2f2e41"/>
    <ellipse cx="206.44" cy="330.92" rx="10.903" ry="4.0887" fill="#2f2e41"/>
    <ellipse transform="translate(-551.35 434.46) rotate(-60.037)" cx="513.58" cy="542.42" rx="6.7601" ry="21.534" fill="#2f2e41"/>
    <circle cx="223.89" cy="273.95" r="43.067" fill="#2f2e41"/>
    <rect x="230.43" y="307.75" width="13.084" height="23.442" fill="#2f2e41"/>
    <rect x="204.26" y="307.75" width="13.084" height="23.442" fill="#2f2e41"/>
    <circle cx="213.8" cy="263.04" r="14.719" fill="#fff"/>
    <ellipse transform="translate(-562.78 262.29) rotate(-44.974)" cx="545.3" cy="543.04" rx="4.9206" ry="4.8859" fill="#3f3d56"/>
    <path transform="translate(-338.5 -282)" d="m567.02 527.15c-17.19-3.8383-28.582-9.5822-25.105-25.156s20.232-25.087 37.422-21.249 28.306 19.575 24.829 35.149-19.956 15.094-37.145 11.256z" fill="#9a70f3"/>
    <ellipse transform="translate(-464.13 -108.46) rotate(-14.875)" cx="601.89" cy="567.96" rx="6.7601" ry="21.534" fill="#2f2e41"/>
    <path transform="translate(-338.5 -282)" d="m552.63 568.76c-7.9067 0-15.32-5.0328-15.32-0.81775s7.4134 16.082 15.32 16.082 15.032-8.3234 15.032-12.539-7.1255-2.7258-15.032-2.7258z" fill="#fff"/>
    <path transform="translate(-338.5 -282)" d="m496.97 484.54h-3.8247a12.937 12.937 0 0 1-12.923-12.923v-3.2109c0-7.9531 1.5068-14.612 4.479-19.792a104.11 104.11 0 0 1 12.542-16.852 74.269 74.269 0 0 0 8.5278-10.279 17.29 17.29 0 0 0 2.6934-9.5625c0-7.978-5.1978-11.856-15.891-11.856a64.526 64.526 0 0 0-17.515 2.6289 14.745 14.745 0 0 1-18.792-14.178v-6.5a14.463 14.463 0 0 1 8.5322-13.256 78.083 78.083 0 0 1 31.81-6.2578c11.444 0 21.775 1.9224 30.707 5.7129 8.9478 3.7993 16.017 9.1567 21.011 15.924a38.352 38.352 0 0 1 7.5361 23.244c0 8.98-2.4517 16.801-7.2866 23.247-4.7822 6.3799-11.638 13.364-20.376 20.76a145.2 145.2 0 0 0-13.063 12.307 22.718 22.718 0 0 0-5.4312 10.111 12.888 12.888 0 0 1-12.736 10.733z" fill="#9a70f3"/>
    <path transform="translate(-338.5 -282)" d="m494.85 545.31h-0.50439a23.951 23.951 0 0 1 0-47.902h0.50439a23.951 23.951 0 1 1 0 47.902z" fill="#9a70f3"/>
    <path transform="translate(-338.5 -282)" d="m650.5 618h-311a1 1 0 0 1 0-2h311a1 1 0 0 1 0 2z" fill="#ccc"/>
    <path transform="translate(-338.5 -282)" d="m860.5 618h-166a1 1 0 0 1 0-2h166a1 1 0 0 1 0 2z" fill="#ccc"/>
    <ellipse transform="translate(-349.74 -267.08) rotate(-1.1204)" cx="757.34" cy="582.03" rx="21.534" ry="6.7601" fill="#2f2e41"/>
    <path transform="translate(-338.5 -282)" d="m746.66 431h-26a5.0057 5.0057 0 0 1-5-5v-26a5.0057 5.0057 0 0 1 5-5h26a5.0057 5.0057 0 0 1 5 5v26a5.0057 5.0057 0 0 1-5 5zm-26-34a3.0033 3.0033 0 0 0-3 3v26a3.0033 3.0033 0 0 0 3 3h26a3.0033 3.0033 0 0 0 3-3v-26a3.0033 3.0033 0 0 0-3-3z" fill="#f2f2f2"/>
    <path transform="translate(-338.5 -282)" d="m758.66 414h-26a5.0057 5.0057 0 0 1-5-5v-26a5.0057 5.0057 0 0 1 5-5h26a5.0057 5.0057 0 0 1 5 5v26a5.0057 5.0057 0 0 1-5 5zm-26-34a3.0033 3.0033 0 0 0-3 3v26a3.0033 3.0033 0 0 0 3 3h26a3.0033 3.0033 0 0 0 3-3v-26a3.0033 3.0033 0 0 0-3-3z" fill="#f2f2f2"/>
    <path transform="translate(-338.5 -282)" d="m553.66 331h-26a5.0057 5.0057 0 0 1-5-5v-26a5.0057 5.0057 0 0 1 5-5h26a5.0057 5.0057 0 0 1 5 5v26a5.0057 5.0057 0 0 1-5 5zm-26-34a3.0033 3.0033 0 0 0-3 3v26a3.0033 3.0033 0 0 0 3 3h26a3.0033 3.0033 0 0 0 3-3v-26a3.0033 3.0033 0 0 0-3-3z" fill="#f2f2f2"/>
    <path transform="translate(-338.5 -282)" d="m537.66 318h-26a5.0057 5.0057 0 0 1-5-5v-26a5.0057 5.0057 0 0 1 5-5h26a5.0057 5.0057 0 0 1 5 5v26a5.0057 5.0057 0 0 1-5 5zm-26-34a3.0033 3.0033 0 0 0-3 3v26a3.0033 3.0033 0 0 0 3 3h26a3.0033 3.0033 0 0 0 3-3v-26a3.0033 3.0033 0 0 0-3-3z" fill="#f2f2f2"/>
    <circle cx="321.22" cy="183.17" r="6.4669" fill="#f2f2f2"/>
    <circle cx="61.22" cy="160.17" r="6.4669" fill="#f2f2f2"/>
    <circle cx="497.22" cy="216.17" r="6.4669" fill="#f2f2f2"/>
</svg>
